<?xml version="1.0" standalone="no"?><svg xmlns="http://www.w3.org/2000/svg" viewBox="0 0 1440 320"><path fill="rgb(201, 199, 199)" fill-opacity="0.5" d="M0,192L30,208C60,224,120,256,180,245.3C240,235,300,181,360,181.3C420,181,480,235,540,240C600,245,660,203,720,202.7C780,203,840,245,900,261.3C960,277,1020,267,1080,245.3C1140,224,1200,192,1260,186.7C1320,181,1380,203,1410,213.3L1440,224L1440,0L1410,0C1380,0,1320,0,1260,0C1200,0,1140,0,1080,0C1020,0,960,0,900,0C840,0,780,0,720,0C660,0,600,0,540,0C480,0,420,0,360,0C300,0,240,0,180,0C120,0,60,0,30,0L0,0Z"></path></svg>